<svg xmlns="http://www.w3.org/2000/svg" width="100" height="85" viewBox="0 0 100 85">
  <g fill="none">
    <path fill="#FFD039" d="M50.5000982,11 L25,53.953459 L35.6934945,72 L50.4999018,72 L52.9640343,72 L55.9144313,72 L58.8648283,72 L65.3065055,72 L76,53.953459 L50.5000982,11 Z M50.5000982,53.9351352 C48.0562021,53.9351352 46.0749939,51.9482878 46.0749939,49.4974354 C46.0749939,47.046583 48.0562021,45.0597355 50.5000982,45.0597355 C52.9439944,45.0597355 54.9252025,47.046583 54.9252025,49.4974354 C54.9250061,51.9482878 52.9439944,53.9351352 50.5000982,53.9351352 Z"/>
    <g fill="#FF6137" transform="translate(1 2)">
      <ellipse cx="4.717" cy="4.446" rx="4.617" ry="4.435"/>
      <ellipse cx="92.318" cy="4.446" rx="4.617" ry="4.435"/>
    </g>
    <g fill="#FFD039" transform="translate(1 1)">
      <rect width="9.22" height="9.244" x=".099" y="48.677"/>
      <rect width="9.22" height="9.244" x="43.809" y=".011"/>
      <rect width="9.22" height="9.244" x="87.682" y="48.677"/>
    </g>
    <polygon fill="#FFAE47" points="49.462 11 47 15.141 70.075 53.954 59.366 72 64.291 72 75 53.954"/>
    <rect width="38" height="12" x="31" y="71" fill="#546F7A"/>
    <rect width="5" height="12" x="64" y="71" fill="#475D63"/>
    <path fill="#000000" d="M35.5415874,82.065845 L32.1612621,82.065845 L32.1612621,73.2807673 L35.1715996,73.2807673 C35.1820412,73.2809627 35.1920888,73.2827209 35.2023334,73.2827209 L52.5206398,73.2827209 C53.3376469,73.2827209 54,72.625911 54,71.8157411 L54,71.8157411 C54,71.815155 54,71.8143736 54,71.8137875 C54,71.0036177 53.3376469,70.3468077 52.5206398,70.3468077 L36.042785,70.3468077 L26.2004785,53.9226509 L35.0291602,39.2176874 C35.4470218,38.5216095 35.2169123,37.6213774 34.5149599,37.2068173 C33.8126135,36.792062 32.9049809,37.0208319 32.4871193,37.7167144 L23.2082661,53.171676 C22.9308737,53.6337092 22.9304797,54.2092482 23.207675,54.6714768 L32.601386,70.347003 L30.6819018,70.347003 C29.8648946,70.347003 29.2025416,71.003813 29.2025416,71.8139828 L29.2025416,83.5330202 C29.2025416,84.34319 29.8648946,85 30.6819018,85 L35.5413904,85 C36.3583976,85 37.0207507,84.34319 37.0207507,83.5330202 C37.0209477,82.7224596 36.3587916,82.065845 35.5415874,82.065845 Z"/>
    <path fill="#000000" d="M98.533206,48.9308319 L95.2675874,48.9308319 C94.9347755,38.1000088 90.8049008,27.7785157 83.5484696,19.7291766 C78.8256273,14.4901848 73.0262246,10.4773944 66.6186199,7.9274062 L87.8802971,7.9274062 C88.5859598,10.521573 90.9498224,12.4342114 93.7509888,12.4342114 C97.1072322,12.4342114 99.8376956,9.68924837 99.8376956,6.31518219 C99.8376956,2.941116 97.1072322,0.19615294 93.7509888,0.19615294 C90.8515804,0.19615294 88.4207257,2.24545047 87.8123285,4.97843623 L56.0075078,4.97843623 L56.0075078,1.47438681 C56.0075078,0.66012631 55.3508685,0 54.5409091,0 L45.2965912,0 C44.4866319,0 43.8299925,0.66012631 43.8299925,1.47438681 L43.8299925,4.97882893 L12.0251718,4.97882893 C11.4169699,2.24584317 8.98611526,0.196545639 6.08670686,0.196545639 C2.73046342,0.196545639 0,2.9415087 0,6.31537854 C0,9.68944472 2.73046342,12.4344078 6.08670686,12.4344078 C8.88787327,12.4344078 11.2517358,10.521573 11.9573985,7.92760255 L33.2190757,7.92760255 C26.8112758,10.4775908 21.011873,14.4903812 16.289226,19.7293729 C9.03279486,27.778712 4.90292011,38.1002051 4.57010826,48.9310283 L1.4665987,48.9310283 C0.656639343,48.9310283 0,49.5911546 0,50.4054151 L0,59.6988233 C0,60.5130838 0.656639343,61.1732101 1.4665987,61.1732101 L10.7109166,61.1732101 C11.5208759,61.1732101 12.1775153,60.5130838 12.1775153,59.6988233 L12.1775153,50.4054151 C12.1775153,49.5911546 11.5208759,48.9310283 10.7109166,48.9310283 L7.50467284,48.9310283 C7.83650813,38.8337661 11.6960709,29.2152034 18.4622686,21.7093592 C25.1280759,14.3150413 34.0854803,9.53197259 43.8299925,8.12355914 L43.8299925,10.767795 C43.8299925,11.5820555 44.4866319,12.2421818 45.2965912,12.2421818 L47.452837,12.2421818 L35.5309853,32.3736781 C35.1167283,33.0732706 35.3448528,33.9780481 36.0407499,34.3947013 C36.7368423,34.8113545 37.6368406,34.5814295 38.0510976,33.8822297 L48.4524444,16.3185894 L48.4524444,43.6146749 C45.9254962,44.2710706 44.0534296,46.5821017 44.0534296,49.3247086 C44.0534296,52.5762528 46.6846744,55.2212741 49.9188478,55.2212741 C53.1530212,55.2212741 55.7844614,52.5760565 55.7844614,49.3247086 C55.7844614,46.5821017 53.9123947,44.2710706 51.3852512,43.6146749 L51.3852512,16.3183931 L73.5619657,53.7659332 L63.8045629,70.2730179 L58.2344566,70.2730179 C57.4748877,70.2730179 56.8500843,70.8536228 56.7752797,71.5977866 C56.7702016,71.6476593 56.7676626,71.6983174 56.7676626,71.7493682 C56.7676626,72.5636287 57.4243019,73.223755 58.2342613,73.223755 L64.6379597,73.223755 C64.6483112,73.223755 64.6582722,73.2219879 64.6684284,73.2217915 L67.6529929,73.2217915 L67.6529929,82.0512264 L41.4018723,82.0512264 C40.5919129,82.0512264 39.9352736,82.7113527 39.9352736,83.5256132 C39.9352736,84.3398737 40.5919129,85 41.4018723,85 L69.1195916,85 C69.9295509,85 70.5861903,84.3398737 70.5861903,83.5256132 L70.5861903,71.7474047 C70.5861903,70.9331442 69.9295509,70.2730179 69.1195916,70.2730179 L67.2166656,70.2730179 L76.5293427,54.5183436 C76.8039516,54.0535849 76.8037562,53.4753362 76.5287568,53.0109702 L52.3848586,12.2421818 L54.5411044,12.2421818 C55.3510638,12.2421818 56.0077031,11.5820555 56.0077031,10.767795 L56.0077031,8.12355914 C65.7522153,9.53197259 74.7096197,14.3150413 81.3756223,21.7093592 C88.1420153,29.2152034 92.0013828,38.8337661 92.3332181,48.9310283 L89.2888881,48.9310283 C88.4789288,48.9310283 87.8222894,49.5911546 87.8222894,50.4054151 L87.8222894,59.6988233 C87.8222894,60.5130838 88.4789288,61.1732101 89.2888881,61.1732101 L98.5334013,61.1732101 C99.3433607,61.1732101 100,60.5130838 100,59.6988233 L100,50.4054151 C99.9998047,49.5909582 99.3431653,48.9308319 98.533206,48.9308319 Z M9.24431788,58.2244365 L2.93300208,58.2244365 L2.93300208,51.8796055 L9.24431788,51.8796055 L9.24431788,58.2244365 Z M93.7509888,3.14531926 C95.4898526,3.14531926 96.9044982,4.56747717 96.9044982,6.31557489 C96.9044982,8.06367261 95.4898526,9.48583051 93.7509888,9.48583051 C92.012125,9.48583051 90.5974793,8.06367261 90.5974793,6.31557489 C90.5976746,4.56747717 92.012125,3.14531926 93.7509888,3.14531926 Z M6.08670686,9.48583051 C4.34784307,9.48583051 2.9331974,8.06367261 2.9331974,6.31557489 C2.9331974,4.56747717 4.34784307,3.14531926 6.08670686,3.14531926 C7.82557065,3.14531926 9.24021633,4.56728082 9.24021633,6.31537854 C9.24021633,8.06347626 7.82557065,9.48583051 6.08670686,9.48583051 Z M52.8514593,49.3247086 C52.8514593,50.9502844 51.5358368,52.2726968 49.9188478,52.2726968 C48.3018588,52.2726968 46.9864317,50.950088 46.9864317,49.3247086 C46.9864317,47.6991328 48.3020541,46.3767204 49.9188478,46.3767204 C51.5358368,46.376524 52.8514593,47.6989365 52.8514593,49.3247086 Z M53.0745057,9.29340821 L46.7631899,9.29340821 L46.7631899,6.45478653 C46.7631899,6.45184129 46.7631899,6.44869971 46.7631899,6.44575447 L46.7631899,2.94877363 L53.0745057,2.94877363 L53.0745057,6.44752161 C53.0745057,6.44928875 53.0745057,6.4510559 53.0745057,6.45282304 L53.0745057,9.29340821 Z M97.0668026,58.2244365 L90.7552915,58.2244365 L90.7552915,51.8796055 L97.0668026,51.8796055 L97.0668026,58.2244365 Z"/>
  </g>
</svg>
