<svg xmlns="http://www.w3.org/2000/svg" width="60" height="250" viewBox="0 0 60 250">
  <g fill="#FFFFFF">
    <g transform="translate(6 5)">
      <path d="M43.3671131,4.78483176 L43.2903274,4.78483176 L43.2903274,4.70783275 C43.2903274,2.11180225 41.184375,0 38.5955357,0 L5.19508929,0 C2.60625,0 0.500297619,2.11180225 0.500297619,4.70768353 L0.500297619,23.8467121 C0.500297619,26.4425934 2.60625,28.5543957 5.19508929,28.5543957 L10.0433036,28.5543957 L10.0433036,28.6313947 C10.0433036,31.227276 12.149256,33.3390782 14.7380952,33.3390782 L15.6943452,33.3390782 L15.2462798,35.1361694 C15.069494,35.8451273 15.3456845,36.5675153 15.95,36.9762368 C16.2434524,37.1747032 16.5761905,37.273638 16.9083333,37.273638 C17.2602679,37.273638 17.611756,37.1626162 17.9150298,36.9414678 L22.8547619,33.338929 L23.9433036,33.338929 L33.2525298,39.5624186 C33.5403274,39.7547669 33.8712798,39.8510156 34.2025298,39.8510156 C34.5255952,39.8513141 34.8489583,39.759542 35.1322917,39.5758486 C35.7058036,39.203836 36.003869,38.5271102 35.8916667,37.8515782 L35.1416667,33.3393767 L43.3671131,33.3393767 C45.9558036,33.3393767 48.0619048,31.2275744 48.0619048,28.6316931 L48.0619048,9.49251529 C48.0619048,6.89663401 45.9559524,4.78483176 43.3671131,4.78483176 Z M16.252381,31.1008842 L14.7380952,31.1008842 C13.3802083,31.1008842 12.2754464,29.9932027 12.2754464,28.6315439 L12.2754464,28.5545449 L16.8872024,28.5545449 L16.252381,31.1008842 Z M17.758631,34.2881357 L19.3994048,27.7068097 C19.4827381,27.3725504 19.4078869,27.0182953 19.1962798,26.7465604 C18.9848214,26.4749748 18.6602679,26.3162016 18.3166667,26.3162016 L5.19508929,26.3162016 C3.83720238,26.3162016 2.73244048,25.2085202 2.73244048,23.8468614 L2.73244048,4.70768353 C2.73244048,3.34602472 3.83720238,2.23834325 5.19508929,2.23834325 L38.5955357,2.23834325 C39.9534226,2.23834325 41.0581845,3.34602472 41.0581845,4.70768353 L41.0581845,23.8467121 C41.0581845,25.2083709 39.9534226,26.3160524 38.5955357,26.3160524 L29.0525298,26.3160524 C28.8166667,26.3160524 28.5869048,26.3909623 28.396131,26.5301873 L17.758631,34.2881357 Z M45.8296131,28.6313947 C45.8296131,29.9930535 44.7248512,31.100735 43.3669643,31.100735 L33.8239583,31.100735 C33.4958333,31.100735 33.184375,31.2454812 32.9723214,31.496474 C32.7602679,31.7474669 32.6691964,32.0796371 32.7232143,32.4040476 L33.4925595,37.0330907 L25.2997024,31.5561632 L29.4153274,28.5545449 L38.5953869,28.5545449 C41.1840774,28.5545449 43.2901786,26.4427426 43.2901786,23.8468614 L43.2901786,7.02302579 L43.3669643,7.02302579 C44.7248512,7.02302579 45.8296131,8.13070726 45.8296131,9.49236607 L45.8296131,28.6313947 Z"/>
      <path d="M13.5446429 7.17717303L9.96651786 7.17717303C9.35 7.17717303 8.85044643 7.67826348 8.85044643 8.29634466 8.85044643 8.91442584 9.35014881 9.41551629 9.96651786 9.41551629L13.5446429 9.41551629C14.1611607 9.41551629 14.6607143 8.91442584 14.6607143 8.29634466 14.6607143 7.67826348 14.1611607 7.17717303 13.5446429 7.17717303zM33.8241071 7.17717303L18.3169643 7.17717303C17.7004464 7.17717303 17.2008929 7.67826348 17.2008929 8.29634466 17.2008929 8.91442584 17.7004464 9.41551629 18.3169643 9.41551629L33.8241071 9.41551629C34.440625 9.41551629 34.9401786 8.91442584 34.9401786 8.29634466 34.9401786 7.67826348 34.440625 7.17717303 33.8241071 7.17717303zM33.8239583 13.1581754L9.96651786 13.1581754C9.35 13.1581754 8.85044643 13.6592659 8.85044643 14.2773471 8.85044643 14.8954282 9.35014881 15.3965187 9.96651786 15.3965187L33.8239583 15.3965187C34.4404762 15.3965187 34.9400298 14.8954282 34.9400298 14.2773471 34.9400298 13.6592659 34.4404762 13.1581754 33.8239583 13.1581754zM25.4736607 19.1390286L9.96651786 19.1390286C9.35 19.1390286 8.85044643 19.640119 8.85044643 20.2582002 8.85044643 20.8762814 9.35 21.3773719 9.96651786 21.3773719L25.4736607 21.3773719C26.0901786 21.3773719 26.5897321 20.8762814 26.5897321 20.2582002 26.5897321 19.640119 26.0901786 19.1390286 25.4736607 19.1390286zM33.8241071 19.1390286L30.2459821 19.1390286C29.6294643 19.1390286 29.1299107 19.640119 29.1299107 20.2582002 29.1299107 20.8762814 29.6294643 21.3773719 30.2459821 21.3773719L33.8241071 21.3773719C34.440625 21.3773719 34.9401786 20.8762814 34.9401786 20.2582002 34.9401786 19.640119 34.4404762 19.1390286 33.8241071 19.1390286z"/>
    </g>
    <g transform="translate(6 55)">
      <path d="M45.6439394,0.0712200126 L2.84090909,0.0712200126 C1.27443182,0.0712200126 0,1.34919192 0,2.92002052 L0,31.3130656 C0,32.8838941 1.27443182,34.1618661 2.84090909,34.1618661 L27.8298295,34.1618661 L26.5195076,36.4375829 C26.3604167,36.7139165 26.3503788,37.0518792 26.4927083,37.3372341 C26.6350379,37.6225889 26.9107955,37.817162 27.2267045,37.855241 L29.1145833,38.0825752 L30.2809659,39.6259604 C30.4606061,39.8637403 30.7404356,40.0020021 31.0356061,40.0020021 C31.0552083,40.0020021 31.075,40.0014323 31.0947917,40.0001029 C31.4114583,39.9802562 31.6971591,39.802681 31.8557765,39.527202 L34.2311553,35.4014741 L36.6065341,39.527202 C36.765625,39.8035356 37.0524621,39.9812058 37.3700758,40.0002928 C37.3890152,40.0014323 37.4079545,40.0020021 37.4267992,40.0020021 C37.7238636,40.0020021 38.0050189,39.861936 38.1844697,39.6218771 L39.3248106,38.0959646 L41.2409091,37.8547662 C41.5556818,37.8150729 41.8298295,37.620025 41.970928,37.3351449 C42.1121212,37.0502649 42.1016098,36.7133467 41.9429924,36.4377728 L40.6326705,34.161961 L45.6439394,34.161961 C47.2104167,34.161961 48.4848485,32.8839891 48.4848485,31.3131605 L48.4848485,2.92011548 C48.4848485,1.34919192 47.2104167,0.0712200126 45.6439394,0.0712200126 Z M30.9287879,37.3386585 L30.38125,36.6141135 C30.2260417,36.40881 29.9945076,36.2755811 29.7394886,36.244814 L28.877178,36.1410227 L30.1368371,33.9531439 C30.1789773,33.9193382 30.217803,33.881639 30.2535985,33.8411861 C30.5835227,34.1270157 30.9425189,34.3750513 31.3233902,34.5829188 C31.6265152,34.7495736 31.9465909,34.891159 32.2739583,35.0025471 L30.9287879,37.3386585 Z M32.2254735,32.9135217 C30.9234848,32.1992324 30.038447,30.8126263 30.038447,29.2224258 C30.038447,26.904072 31.9193182,25.0179761 34.23125,25.0179761 C36.5431818,25.0179761 38.4239583,26.904072 38.4239583,29.2224258 C38.424053,30.8107271 37.5410985,32.1958139 36.2416667,32.9108628 C36.2354167,32.9142814 36.7876894,32.6103143 36.8155303,32.5951207 C36.7989583,32.6042369 36.6476326,32.6875168 36.2416667,32.9108628 C35.0002841,33.5911564 33.4675189,33.5916312 32.2254735,32.9135217 Z M38.6899621,36.2616219 C38.4351326,36.2937184 38.2041667,36.4281818 38.0501894,36.63434 L37.5292614,37.3313465 L36.1881629,35.0020723 C36.5170455,34.8903043 36.8382576,34.7483391 37.1427083,34.5809246 C37.5361742,34.3661251 37.9064394,34.109638 38.2445076,33.8123182 L39.5894886,36.1483346 L38.6899621,36.2616219 Z M46.5909091,31.3130656 C46.5909091,31.8366751 46.1660985,32.2626657 45.6439394,32.2626657 L39.5391098,32.2626657 L39.5224432,32.233608 C40.0277462,31.3443074 40.3179924,30.3170299 40.3179924,29.2223309 C40.3179924,25.8567579 37.5875,23.1186808 34.2313447,23.1186808 C30.8750947,23.1186808 28.1446023,25.8567579 28.1446023,29.2223309 C28.1446023,30.316935 28.4348485,31.3442124 28.9401515,32.233513 L28.9233902,32.2626657 L2.84090909,32.2626657 C2.31875,32.2626657 1.89393939,31.8366751 1.89393939,31.3130656 L1.89393939,2.92002052 C1.89393939,2.39641098 2.31875,1.97042035 2.84090909,1.97042035 L45.6439394,1.97042035 C46.1660985,1.97042035 46.5909091,2.39641098 46.5909091,2.92002052 L46.5909091,31.3130656 Z"/>
      <path d="M34.1856061 14.6948727L14.2045455 14.6948727C13.6816288 14.6948727 13.2575758 15.1200087 13.2575758 15.6444729 13.2575758 16.168937 13.6816288 16.594073 14.2045455 16.594073L34.1856061 16.594073C34.7085227 16.594073 35.1325758 16.168937 35.1325758 15.6444729 35.1325758 15.1201986 34.7085227 14.6948727 34.1856061 14.6948727zM34.1856061 18.4932734L14.2045455 18.4932734C13.6816288 18.4932734 13.2575758 18.9184094 13.2575758 19.4428735 13.2575758 19.9673377 13.6816288 20.3924737 14.2045455 20.3924737L34.1856061 20.3924737C34.7085227 20.3924737 35.1325758 19.9673377 35.1325758 19.4428735 35.1325758 18.9185993 34.7085227 18.4932734 34.1856061 18.4932734zM25.7575758 8.3324566L19.8863636 8.33264652C19.3633523 8.33274148 18.9393939 8.75787747 18.9393939 9.28234165 18.9393939 9.80680582 19.363447 10.2318469 19.8863636 10.2318469L25.7575758 10.2316569C26.2805871 10.231562 26.7045455 9.80642598 26.7045455 9.28196181 26.7045455 8.75749763 26.2804924 8.3324566 25.7575758 8.3324566zM20.8333333 24.6658644L16.8560606 24.6658644C16.3331439 24.6658644 15.9090909 25.0910004 15.9090909 25.6154645 15.9090909 26.1399287 16.3331439 26.5650647 16.8560606 26.5650647L20.8333333 26.5650647C21.3563447 26.5650647 21.780303 26.1399287 21.780303 25.6154645 21.780303 25.0910004 21.3563447 24.6658644 20.8333333 24.6658644z"/>
    </g>
    <g transform="translate(14 105)">
      <g transform="translate(0 .447)">
        <path d="M27.0217349,27.4272428 L23.3837232,26.7128858 C22.9398635,26.6257047 22.5444444,26.4581842 22.215692,26.2345628 C22.1904483,26.2149177 22.16423,26.1973251 22.1371345,26.1811986 C21.5714425,25.7669907 21.2275828,25.1766615 21.2275828,24.5326749 L21.2275828,23.0171708 C21.7446394,22.6143981 22.2118908,22.1511265 22.6192982,21.6375206 C24.3669591,21.6033128 25.7844055,20.1972737 25.8430799,18.4508179 C26.6880117,18.1676749 27.2994152,17.368287 27.2994152,16.4270833 L27.2994152,12.4174383 C27.2994152,11.5050669 26.7245614,10.7267901 25.9199805,10.4219496 C26.2860624,10.2771039 26.4931774,9.87677469 26.3883041,9.48680556 C25.641423,6.71255144 24.4369396,4.50507202 22.808577,2.92564815 C20.9324561,1.10559671 18.8534113,0.124418724 16.6288499,0.00908950617 C16.48577,0.00185699588 13.0923977,-0.143575103 10.1330409,2.38174383 C9.28362573,3.10655864 8.53167641,4.01687757 7.89746589,5.08709362 C7.89697856,5.08787551 7.89639376,5.08855967 7.89590643,5.08934156 C7.89405458,5.09227366 7.89249513,5.0953035 7.89064327,5.0982356 C7.88927875,5.10067901 7.8877193,5.10292695 7.88635478,5.10527263 C7.88606238,5.10585905 7.88586745,5.10644547 7.88547758,5.10693416 C7.29551657,6.05898663 6.88128655,7.0961677 6.65497076,8.19023148 C6.50087719,8.93488683 6.43752437,9.69273663 6.46432749,10.451466 C5.70126706,10.7762449 5.16471735,11.5351698 5.16471735,12.4174383 L5.16471735,16.4270833 C5.16471735,17.6041255 6.11968811,18.5616512 7.29337232,18.5616512 L8.3211501,18.5616512 C8.80380117,20.4725977 9.95925926,22.1162346 11.5182261,23.2268158 L11.5182261,24.5326749 C11.5182261,25.1767593 11.1741715,25.767284 10.6082846,26.1814918 C10.5815789,26.1974228 10.555653,26.2149177 10.5306043,26.2342695 C10.2017544,26.4580864 9.80614035,26.6257047 9.36208577,26.7128858 L5.72407407,27.4272428 C2.35380117,28.0890175 0,30.6212757 0,33.5854321 L0,37.5060391 C0,37.9399897 0.350779727,38.2918416 0.783625731,38.2918416 L31.9621832,38.2918416 C32.3950292,38.2918416 32.745809,37.9399897 32.745809,37.5060391 L32.745809,33.5854321 C32.745809,30.6212757 30.3919103,28.0890175 27.0217349,27.4272428 Z M23.854386,19.4707973 C23.9672515,19.1753395 24.0645224,18.872356 24.1429825,18.5616512 L24.2626706,18.5616512 C24.2179337,18.9070525 24.0718324,19.2201029 23.854386,19.4707973 Z M25.7322612,12.4172428 L25.7322612,16.4268879 C25.7322612,16.7372994 25.4804094,16.9898508 25.1708577,16.9898508 L24.3923977,16.9898508 L24.3923977,16.5533591 L24.3923977,11.8542798 L25.1708577,11.8542798 C25.4804094,11.8542798 25.7322612,12.106929 25.7322612,12.4172428 Z M11.1486355,3.57862654 C13.6178363,1.47162037 16.5216374,1.57717593 16.5480507,1.57864198 C18.3832359,1.67373971 20.1229045,2.50684671 21.7190058,4.05519033 C23.1411306,5.4347428 24.2031189,7.39993313 24.8751462,9.89641975 C24.9170565,10.0522119 25.0030214,10.1841564 25.1157895,10.2828704 L24.3598441,10.2828704 C24.2638402,9.95770062 23.96423,9.72029835 23.6087719,9.72029835 C23.4532164,9.72029835 23.3086745,9.7663323 23.1868421,9.84461934 C23.1840156,9.8463786 23.1816764,9.84725823 23.1788499,9.84911523 C22.3395712,10.4014249 20.3408382,10.740571 19.277193,10.740571 C16.6719298,10.740571 14.1625731,9.80728395 12.0323587,8.10295267 L9.54454191,5.41372942 C10.0206628,4.69859053 10.5581871,4.08236111 11.1486355,3.57862654 Z M8.07183236,16.5534568 L8.07183236,16.9899486 L8.07173489,16.9899486 L7.29337232,16.9899486 C6.98382066,16.9899486 6.73196881,16.7373971 6.73196881,16.4269856 L6.73196881,12.4174383 C6.73196881,12.1070267 6.98382066,11.8544753 7.29337232,11.8544753 L8.07183236,11.8544753 L8.07183236,16.5534568 Z M8.67465887,9.74199588 C8.57397661,9.76584362 8.48099415,9.80904321 8.39951267,9.86758745 C8.27621832,9.92114712 8.15185185,9.97265432 8.0254386,10.0201543 C8.03157895,9.51299897 8.08625731,9.00760288 8.18937622,8.5094393 C8.29951267,7.97697016 8.46520468,7.4615072 8.68011696,6.96588477 C9.18986355,7.5930607 9.73411306,8.17039095 10.3082846,8.69474794 C9.72738791,9.16417695 9.23148148,9.45298868 9.00545809,9.57476852 C8.89688109,9.63331276 8.78625731,9.68843621 8.67465887,9.74199588 Z M9.63908382,16.5534568 L9.63908382,11.0686728 L9.63908382,11.0155041 C9.6751462,10.9966409 9.71169591,10.9785597 9.74746589,10.9593056 C10.0489279,10.7968673 10.7537037,10.3851029 11.5436647,9.70837449 C13.8413255,11.3945267 16.5070175,12.3121759 19.277193,12.3121759 C20.1552632,12.3121759 21.6266082,12.1216872 22.8251462,11.7206739 L22.8251462,16.5535545 C22.8251462,17.8442644 22.4530214,19.0487706 21.812768,20.0675772 L16.9951267,20.0675772 C16.5622807,20.0675772 16.211501,20.419429 16.211501,20.8533796 C16.211501,21.2873302 16.5622807,21.6391821 16.9951267,21.6391821 L20.4396686,21.6391821 C19.2971735,22.5913323 17.8302144,23.1649486 16.2319688,23.1649486 C12.5965887,23.1649486 9.63908382,20.1990329 9.63908382,16.5534568 Z M31.1785575,36.7203344 L26.8432749,36.7203344 L26.8432749,35.3853498 C26.8432749,34.9513992 26.4924951,34.5995473 26.0596491,34.5995473 C25.6268031,34.5995473 25.2760234,34.9513992 25.2760234,35.3853498 L25.2760234,36.7203344 L7.47602339,36.7203344 L7.47602339,35.3853498 C7.47602339,34.9513992 7.12524366,34.5995473 6.69239766,34.5995473 C6.25955166,34.5995473 5.90877193,34.9513992 5.90877193,35.3853498 L5.90877193,36.7203344 L1.56725146,36.7203344 L1.56725146,33.5855298 C1.56725146,31.383035 3.40038986,29.484892 6.02524366,28.9696245 L9.66325536,28.2552675 C10.1243665,28.1647634 10.5532164,28.0141512 10.9410331,27.8151595 C11.4123782,28.1769805 11.9181287,28.4913014 12.4507797,28.7524537 C12.5615984,28.8066975 12.6788499,28.8324023 12.794347,28.8324023 C13.084308,28.8324023 13.3630604,28.6703549 13.4990253,28.3916101 C13.6889864,28.0016409 13.5278752,27.5311368 13.1391813,27.3404527 C12.8230019,27.1855401 12.518616,27.007073 12.2276803,26.8082767 C12.7712476,26.1699588 13.0854776,25.3810288 13.0854776,24.5327726 L13.0854776,24.1031224 C14.054386,24.5106842 15.1173489,24.7366512 16.2321637,24.7366512 C17.4562378,24.7366512 18.6172515,24.4631842 19.6603314,23.9768467 L19.6603314,24.5327726 C19.6603314,25.3807356 19.974269,26.1693724 20.5174464,26.8074949 C19.3009747,27.6367901 17.8589669,28.087356 16.3729045,28.087356 C16.0712476,28.087356 15.7679337,28.0689815 15.4711501,28.0327212 C15.0411306,27.9802366 14.6507797,28.2869342 14.5984405,28.7176595 C14.5461014,29.1484825 14.8520468,29.5402109 15.2815789,29.5926955 C15.6410331,29.636677 16.0082846,29.6588632 16.3729045,29.6588632 C18.3423977,29.6588632 20.2481481,29.0062757 21.8026316,27.8139866 C22.1910331,28.0135648 22.6205653,28.1645679 23.0825536,28.2552675 L26.7205653,28.9696245 C29.3454191,29.4849897 31.1785575,31.3831327 31.1785575,33.5855298 L31.1785575,36.7203344 L31.1785575,36.7203344 Z"/>
        <path d="M16.2418129,19.9953498 C17.1959064,19.9953498 18.15,19.6311831 18.8764133,18.9027521 C19.1618908,18.6165792 19.1618908,18.152428 18.8764133,17.8661574 C18.5909357,17.5798868 18.1281676,17.5798868 17.8425926,17.8661574 C16.9597466,18.7514558 15.5235867,18.751358 14.6409357,17.8661574 C14.3554581,17.5798868 13.8926901,17.5798868 13.607115,17.8661574 C13.3216374,18.1523302 13.3216374,18.6164815 13.607115,18.9027521 C14.3335283,19.6311831 15.2876218,19.9953498 16.2418129,19.9953498 Z"/>
      </g>
      <ellipse cx="13.307" cy="13.839" rx="1" ry="1"/>
      <ellipse cx="18.866" cy="13.839" rx="1" ry="1"/>
    </g>
    <g transform="translate(2 154)">
      <path d="M44.1603019,5.51375126 C42.2494507,4.63825901 38.6667145,4.62820513 38.5151938,4.62820513 C38.0607412,4.62820513 37.6923077,4.96581457 37.6923077,5.38224646 C37.6923077,5.79867835 38.0607412,6.13628778 38.5151938,6.13628778 C39.4396788,6.13628778 42.1237137,6.2667872 43.4243126,6.86258039 C43.542479,6.91677083 43.6679966,6.94230769 43.7916489,6.94230769 C44.0934835,6.94230769 44.3841269,6.78948865 44.5282965,6.52537311 C44.7316043,6.15287669 44.5668076,5.6999492 44.1603019,5.51375126 Z"/>
      <path d="M54.5733173,29.952263 L49.6730769,29.952263 C49.9953245,29.4383368 50.1818149,28.8331339 50.1818149,28.1856553 L50.1818149,20.7086389 C50.1818149,19.2128726 49.1639062,17.8811912 47.7065986,17.4702852 L44.7810577,16.6453772 C44.386875,16.5342436 44.1116827,16.1740469 44.1117909,15.7694395 L44.111899,15.1015704 C44.384387,14.9152802 44.6442187,14.7067847 44.8871755,14.4740553 C46.0647476,13.346279 46.7132452,11.8334317 46.7132452,10.2143616 L46.7132452,8.69179941 L47.0370072,8.0527546 C47.3925721,7.35115044 47.5803606,6.56552887 47.5803606,5.78108161 L47.5803606,1.65654165 C47.5803606,1.21435595 47.2171154,0.855867397 46.7690625,0.855867397 L38.9648077,0.855867397 C36.1267788,0.855867397 33.8178245,3.13458632 33.8178245,5.93545161 L33.8178245,5.98317179 C33.8178245,6.63534766 33.9740264,7.28859109 34.2696635,7.87212249 L34.6849399,8.69179941 L34.6849399,9.99903357 C34.6849399,12.0707515 35.719399,13.9297036 37.2862861,15.0484057 L37.2862861,15.7695463 C37.2862861,16.1740469 37.0109856,16.5342436 36.6169111,16.6453772 L33.6915865,17.4702852 C32.2342788,17.8811912 31.2164784,19.2129794 31.2164784,20.7087456 L31.2164784,21.3945498 L31.1606611,21.3945498 C30.2351322,21.3945498 29.4822476,22.1375755 29.4822476,23.0509847 L29.4822476,29.8971766 C29.4822476,29.9157522 29.4844111,29.9337941 29.4850601,29.952263 L25.3933053,29.952263 C25.7155529,29.4383368 25.9020433,28.8331339 25.9020433,28.1856553 L25.9020433,20.7086389 C25.9020433,19.2128726 24.8841346,17.8811912 23.4268269,17.4702852 L20.5012861,16.6453772 C20.4695913,16.6365164 20.4396274,16.6242394 20.4094471,16.6121759 C21.797524,16.3451777 22.9290144,15.9954432 23.6548558,15.7394409 C24.0770553,15.5905155 24.4150962,15.2878607 24.6064543,14.886883 C24.7960817,14.4896418 24.8177163,14.0446804 24.6672476,13.6338812 C23.9521154,11.6823711 23.4127644,8.4160472 23.2984255,6.8082933 C23.0223678,2.92683804 20.065024,-0.000106756567 16.4195913,0 C12.7739423,0 9.81649038,2.9269448 9.54043269,6.8082933 C9.42598558,8.41583368 8.88674279,11.6821576 8.1715024,13.6338812 C8.02103365,14.0445737 8.04266827,14.489535 8.23229567,14.8867762 C8.42376202,15.2876471 8.76158654,15.5905155 9.18378606,15.7393342 C9.9096274,15.9953364 11.0413341,16.3450709 12.4296274,16.6121759 C12.3994471,16.6241326 12.3691587,16.6361961 12.3373558,16.6451636 L9.41203125,17.4700716 C7.95472356,17.8809777 6.93692308,19.2126591 6.93692308,20.7084253 L6.93692308,28.1854418 C6.93692308,28.8329204 7.12352163,29.4381233 7.44566106,29.9520494 L0.811298077,29.9520494 C0.363245192,29.9520494 0,30.310538 0,30.7527237 C0,31.1949094 0.363245192,31.5533979 0.811298077,31.5533979 L1.73423077,31.5533979 L1.73423077,39.3104369 C1.73423077,39.7526226 2.09747596,40.1111111 2.54552885,40.1111111 C2.99358173,40.1111111 3.35682692,39.7526226 3.35682692,39.3104369 L3.35682692,34.9764405 L10.4054928,34.9764405 L10.4054928,39.3104369 C10.4054928,39.7526226 10.768738,40.1111111 11.2167909,40.1111111 C11.6648437,40.1111111 12.0280889,39.7526226 12.0280889,39.3104369 L12.0280889,36.6880685 L20.8110937,36.6880685 L20.8110937,39.3104369 C20.8110937,39.7526226 21.1743389,40.1111111 21.6223918,40.1111111 C22.0704447,40.1111111 22.4336899,39.7526226 22.4336899,39.3104369 L22.4336899,34.9764405 L52.0277885,34.9764405 L52.0277885,39.3104369 C52.0277885,39.7526226 52.3910337,40.1111111 52.8390865,40.1111111 C53.2871394,40.1111111 53.6503846,39.7526226 53.6503846,39.3104369 L53.6503846,31.5533979 L54.5733173,31.5533979 C55.0213702,31.5533979 55.3846154,31.1949094 55.3846154,30.7527237 C55.3846154,30.3104312 55.0213702,29.952263 54.5733173,29.952263 Z M36.3077524,9.99903357 L36.3077524,8.50273353 C36.3077524,8.37836213 36.2784375,8.25580559 36.2220793,8.144672 L35.721238,7.15589268 C35.5376683,6.79356089 35.440637,6.38809945 35.440637,5.98306504 L35.440637,5.93534485 C35.440637,4.01746313 37.0216947,2.45710914 38.965024,2.45710914 L45.9579808,2.45710914 L45.9579808,5.78097486 C45.9579808,6.3181739 45.829363,6.85601349 45.5859736,7.33652479 L45.1765385,8.14456525 C45.1201803,8.25580559 45.0908654,8.37825537 45.0908654,8.50262677 L45.0908654,10.2141481 C45.0908654,11.396477 44.6172837,12.5010872 43.7573077,13.3247141 C42.8977644,14.147914 41.7625962,14.5815592 40.5637139,14.546116 C38.216899,14.476831 36.3077524,12.4368198 36.3077524,9.99903357 Z M42.6305769,16.5894367 L41.964988,17.2463099 C41.6269471,17.5799241 41.1773798,17.763759 40.6991466,17.763759 C40.2210216,17.763759 39.7714543,17.5799241 39.4334135,17.2463099 L38.7677163,16.58933 C38.8488462,16.3595898 38.8951442,16.1160781 38.9050962,15.865734 C39.4167548,16.0318472 39.9564303,16.1303835 40.5149279,16.1469307 C40.5773437,16.1488524 40.6394351,16.1497064 40.7016346,16.1497064 C41.3186538,16.1497064 41.9209615,16.0574687 42.4940625,15.8815339 C42.5050962,16.1263267 42.5511779,16.3645006 42.6305769,16.5894367 Z M32.8391827,20.7086389 L32.8391827,20.7086389 C32.8392909,19.9239781 33.3732332,19.2254699 34.1375841,19.0099284 L37.0630168,18.1850204 C37.316899,18.1133867 37.551851,18.0031072 37.7645192,17.8637899 L38.2861298,18.37857 C38.930625,19.0147324 39.7876803,19.3651075 40.6992548,19.3651075 C41.6108293,19.3651075 42.4678846,19.0147324 43.1123798,18.37857 L43.6338822,17.8638966 C43.8464423,18.0032139 44.0815024,18.1134935 44.3353846,18.1850204 L47.2608173,19.0099284 C48.0252764,19.2254699 48.5592187,19.9239781 48.5592187,20.7086389 L48.5592187,28.1856553 C48.5592187,29.159809 47.75625,29.952263 46.7691707,29.952263 L43.2419712,29.952263 C43.2426202,29.9337941 43.2447837,29.9157522 43.2447837,29.8971766 L43.2447837,28.1305689 L45.9019471,28.1305689 C46.35,28.1305689 46.7132452,27.7720803 46.7132452,27.3298946 L46.7132452,22.195224 C46.7132452,21.7530383 46.35,21.3945498 45.9019471,21.3945498 C45.4538942,21.3945498 45.090649,21.7530383 45.090649,22.195224 L45.090649,26.5292204 L43.2447837,26.5292204 L43.2447837,23.0509847 C43.2447837,22.1375755 42.491899,21.3945498 41.5663702,21.3945498 L32.8391827,21.3945498 L32.8391827,20.7086389 Z M31.1049519,23.0509847 C31.1049519,23.0205591 31.1299399,22.9958983 31.1607692,22.9958983 L41.5663702,22.9958983 C41.5971995,22.9958983 41.6221875,23.0205591 41.6221875,23.0509847 L41.6221875,29.8971766 C41.6221875,29.9276022 41.5971995,29.952263 41.5663702,29.952263 L31.1607692,29.952263 C31.1299399,29.952263 31.1049519,29.9276022 31.1049519,29.8971766 L31.1049519,23.0509847 Z M9.72995192,14.2316112 C9.71329327,14.2257396 9.70463942,14.2136761 9.70020433,14.204495 C9.69338942,14.1900829 9.6963101,14.1821829 9.69760817,14.1786599 C10.4629327,12.0900744 11.0381971,8.62144683 11.1591346,6.92070796 C11.2629808,5.46134569 11.8464663,4.11663998 12.8019591,3.13458632 C13.7777885,2.13160837 15.0288101,1.60156202 16.4198077,1.60156202 C17.8104808,1.60156202 19.0612861,2.13160837 20.0371154,3.13458632 C20.9926082,4.11663998 21.5760937,5.46123894 21.6799399,6.92070796 C21.8009856,8.62166035 22.37625,12.090288 23.1414663,14.1786599 C23.1427644,14.1820761 23.1456851,14.1900829 23.138762,14.204495 C23.1344351,14.2135693 23.1256731,14.2257396 23.1091226,14.2316112 C21.8674038,14.6695266 19.3471875,15.4040118 16.419375,15.4040118 C13.4914543,15.4040118 10.9715625,14.6694199 9.72995192,14.2316112 Z M10.4054928,33.3753055 L3.35682692,33.3753055 L3.35682692,31.5536115 L10.4054928,31.5536115 L10.4054928,33.3753055 Z M12.0280889,35.0868268 L12.0280889,23.9067453 C12.0280889,23.4044557 12.4421755,22.9958983 12.9510216,22.9958983 L19.8880529,22.9958983 C20.3970072,22.9958983 20.8109856,23.4045624 20.8109856,23.9067453 L20.8109856,35.0868268 L12.0280889,35.0868268 Z M19.8881611,21.3945498 L12.9511298,21.3945498 C11.547476,21.3945498 10.405601,22.5215789 10.405601,23.9067453 L10.405601,29.952263 L10.3497837,29.952263 C9.36270433,29.952263 8.55973558,29.159809 8.55973558,28.1856553 L8.55973558,20.7086389 C8.55973558,19.9239781 9.09367788,19.2254699 9.85802885,19.0099284 L12.7833534,18.1850204 C13.4825841,17.987841 14.046274,17.5173648 14.3598678,16.8976429 C15.0166947,16.9651131 15.7065144,17.0053603 16.4194832,17.0053603 C17.13375,17.0053603 17.8247596,16.9648996 18.4827764,16.8972159 C18.798101,17.5136283 19.3633053,17.9897626 20.0559375,18.1851271 L22.9813702,19.0100351 C23.7458293,19.2255766 24.2797716,19.9240848 24.2797716,20.7087456 L24.2797716,28.185762 C24.2797716,29.1599157 23.4768029,29.9523697 22.4897236,29.9523697 L22.4339062,29.9523697 L22.4339062,23.9068521 C22.4336899,22.5214721 21.2918149,21.3945498 19.8881611,21.3945498 Z M22.4336899,33.3753055 L22.4336899,31.5536115 L22.4895072,31.5536115 L52.0276803,31.5536115 L52.0276803,33.3753055 L22.4336899,33.3753055 Z"/>
      <ellipse cx="36.154" cy="26.998" rx="1" ry="1"/>
    </g>
    <g transform="translate(1 205)">
      <path d="M57.6608536,0.938685602 C57.6595324,0.923837253 57.6566259,0.90939386 57.6546441,0.894680496 C57.6520018,0.875782598 57.6497558,0.856749715 57.6461887,0.837851816 C57.6428858,0.820708723 57.6382618,0.80410557 57.6340341,0.787232446 C57.6300706,0.771169233 57.6265035,0.754971034 57.6218794,0.739042806 C57.6169911,0.722574637 57.6109138,0.706511424 57.6051007,0.690313225 C57.5995519,0.674519982 57.5945315,0.658456768 57.5880578,0.64279851 C57.5819805,0.627680191 57.574582,0.613101812 57.5678441,0.598253464 C57.5604456,0.582325235 57.5535756,0.566127037 57.5453844,0.550603763 C57.5378538,0.536295355 57.5293984,0.522526886 57.5212072,0.508623432 C57.5123555,0.493505114 57.5039001,0.478116825 57.4941235,0.463268477 C57.4840827,0.447880188 57.4727207,0.433301809 57.4618872,0.418588446 C57.4527713,0.406169827 57.4443158,0.393481238 57.4346714,0.381332589 C57.4145898,0.356360367 57.393187,0.332333039 57.3708595,0.309250606 C57.3695383,0.307900756 57.3684814,0.306280936 57.3670281,0.304931086 C57.3655749,0.303446252 57.3637252,0.301961417 57.362272,0.300476582 C57.3399444,0.277934089 57.316692,0.256336491 57.2923827,0.235953758 C57.2807565,0.226099854 57.2683377,0.2175958 57.256183,0.208281835 C57.2416503,0.197213067 57.2273818,0.185604358 57.2123206,0.175210514 C57.1981842,0.165626579 57.1835193,0.157122525 57.1691187,0.148348501 C57.1549823,0.139709462 57.1411102,0.130665468 57.1265774,0.122701353 C57.1121768,0.114737239 57.0973799,0.10825796 57.082715,0.101238741 C57.0672575,0.0936795812 57.0517999,0.0858504519 57.035946,0.0791012026 C57.0219418,0.0732968481 57.0076733,0.0684373886 56.9935369,0.0633079591 C56.9762297,0.0569636647 56.9593189,0.0502144153 56.9417475,0.0448150158 C56.9280075,0.0404954962 56.9140032,0.0373908415 56.8999989,0.0338812318 C56.8816348,0.0290217723 56.863535,0.0238923428 56.8447745,0.0201127631 C56.8295812,0.0170081084 56.8143879,0.0153882886 56.7990625,0.0130935438 C56.781359,0.010258859 56.7640518,0.00715420433 56.7460841,0.00526441451 C56.7209821,0.00269969975 56.6956158,0.00188978982 56.6703817,0.00134984987 C56.6624548,0.0010798799 56.6545278,0 56.6463367,0 L1.52407504,0 C1.51588387,0 1.50808904,0.0010798799 1.49989786,0.00121486489 C1.47466375,0.00175480484 1.44929753,0.00256471476 1.42419553,0.00512942952 C1.40622779,0.00688423435 1.38878851,0.010258859 1.37121711,0.0129585588 C1.3560238,0.0152533036 1.34083049,0.0170081084 1.32550506,0.0199777781 C1.30674462,0.0237573578 1.28864476,0.0290217723 1.27028067,0.0337462468 C1.25640852,0.0373908415 1.24240425,0.0403605112 1.22866421,0.0446800308 C1.2109607,0.0500794303 1.19404988,0.0568286797 1.17687483,0.0631729741 C1.16273845,0.0684373886 1.14846994,0.0731618631 1.13446567,0.0789662176 C1.11861178,0.085580482 1.10315424,0.0935445962 1.08769669,0.101103756 C1.07303185,0.108122975 1.05823488,0.114872224 1.04383426,0.122566369 C1.02930153,0.130530483 1.01529726,0.139709462 1.00116087,0.148213516 C0.986760255,0.157122525 0.972227521,0.165356609 0.958091135,0.174940544 C0.942897823,0.185334388 0.928497205,0.196943097 0.913964472,0.20814685 C0.901941938,0.217730785 0.889655172,0.226234839 0.87789687,0.236088743 C0.85358757,0.256471476 0.830335197,0.278069074 0.808007633,0.300611567 C0.80655436,0.302096402 0.804704739,0.303581237 0.803251466,0.305066071 C0.801930308,0.306415921 0.800741267,0.308035741 0.799420109,0.309385591 C0.777092546,0.332468024 0.755821909,0.356360367 0.735608198,0.381467574 C0.725963747,0.393481238 0.717508339,0.406169827 0.708392351,0.418723431 C0.697558859,0.433571779 0.686196904,0.448015173 0.676156106,0.463403462 C0.666511656,0.47825181 0.658056247,0.493505114 0.649072376,0.508758417 C0.640881199,0.522661871 0.632293674,0.53643034 0.624895192,0.550738748 C0.616704015,0.566262022 0.609833995,0.582325235 0.602435513,0.598253464 C0.595565493,0.613101812 0.588299127,0.627815176 0.582089686,0.64306848 C0.575880245,0.658591753 0.570859847,0.674519982 0.565178869,0.69017824 C0.559497891,0.706376439 0.553288451,0.722574637 0.548268052,0.739177791 C0.543511885,0.755106019 0.540076875,0.771304218 0.536113402,0.787367431 C0.532017814,0.804240555 0.527393762,0.820843708 0.523958752,0.837986801 C0.520259511,0.856749715 0.518145659,0.875782598 0.515503344,0.894815481 C0.513521607,0.909528845 0.510747176,0.923972238 0.509293903,0.938820587 C0.505991009,0.973106774 0.504273504,1.00752795 0.504273504,1.04221909 L0.504273504,19.609944 C0.504273504,20.185385 0.96073345,20.6516232 1.52381081,20.6516232 C2.08688818,20.6516232 2.54334812,20.185385 2.54334812,19.609944 L2.54334812,3.55631448 L5.02752073,6.09443719 L5.02752073,33.1249109 L2.54361235,35.6630337 L2.54361235,23.6777166 C2.54361235,23.1022756 2.08715241,22.6359025 1.52407504,22.6359025 C0.960997682,22.6359025 0.504537736,23.1021406 0.504537736,23.6775816 L0.504537736,38.177264 C0.504537736,38.2116852 0.506255241,38.2461064 0.509558135,38.2805275 C0.510879292,38.2953759 0.513785839,38.3098193 0.515767575,38.3245327 C0.51840989,38.3434305 0.520655858,38.3624634 0.524222984,38.3813613 C0.527525878,38.3985044 0.532149929,38.4151076 0.536377634,38.4319807 C0.540341106,38.4480439 0.543908232,38.4642421 0.548532283,38.4801703 C0.553420566,38.4967735 0.559497891,38.5128367 0.565310985,38.5291699 C0.570859847,38.5449631 0.575880245,38.5608914 0.582221802,38.5764146 C0.588431243,38.5916679 0.595697609,38.6062463 0.602435513,38.6210947 C0.609833995,38.6370229 0.616704015,38.6530861 0.624895192,38.6687444 C0.63242579,38.6830528 0.640881199,38.6968212 0.649072376,38.7107247 C0.657924132,38.725843 0.66637954,38.7412313 0.676156106,38.7560797 C0.686196904,38.7714679 0.697426743,38.7860463 0.708392351,38.8007597 C0.717508339,38.8131783 0.725963747,38.8258669 0.735608198,38.8380155 C0.755689793,38.8629878 0.777092546,38.8870151 0.799420109,38.9100975 C0.800741267,38.9114474 0.801930308,38.9130672 0.803251466,38.914417 C0.804704739,38.9159019 0.80655436,38.9173867 0.808007633,38.9188715 C0.830335197,38.941414 0.85358757,38.9630116 0.87789687,38.9833944 C0.889655172,38.9932483 0.902074053,39.0018873 0.914228703,39.0110663 C0.928761437,39.0221351 0.943029939,39.0337438 0.958091135,39.0440026 C0.972359637,39.0537216 0.987288718,39.0622256 1.00195357,39.0712696 C1.01582572,39.0797737 1.02943364,39.0886827 1.04370215,39.0965118 C1.05863123,39.1047459 1.07395666,39.1116301 1.0894142,39.1190543 C1.10421116,39.1262085 1.11887601,39.1337676 1.13420144,39.1402469 C1.14913052,39.1464562 1.16432383,39.1515857 1.17951715,39.157255 C1.19576738,39.1631944 1.21188551,39.1696737 1.22839998,39.1748031 C1.24346117,39.1793926 1.25865449,39.1829022 1.27397991,39.1868167 C1.29102285,39.1912713 1.30780155,39.1961307 1.32524083,39.1996403 C1.34281222,39.2032849 1.36064785,39.2053097 1.37821925,39.2080094 C1.39341256,39.2101692 1.40820952,39.2131388 1.42366707,39.2146237 C1.45709236,39.2179983 1.49064976,39.2197531 1.52420716,39.2197531 L56.6468651,39.2197531 C56.6804225,39.2197531 56.7139799,39.2179983 56.7474052,39.2146237 C56.7627306,39.2131388 56.7775276,39.2101692 56.792853,39.2080094 C56.8106887,39.2053097 56.8285243,39.2032849 56.8459636,39.1996403 C56.8634029,39.1961307 56.8800494,39.1912713 56.8970924,39.1868167 C56.9122857,39.1829022 56.927479,39.1793926 56.9426723,39.1748031 C56.9591868,39.1696737 56.9753049,39.1633294 56.9915551,39.157255 C57.0066163,39.1517207 57.0218096,39.1465912 57.0368708,39.1402469 C57.0520642,39.1337676 57.066729,39.1262085 57.0816581,39.1190543 C57.0968514,39.1116301 57.1123089,39.1047459 57.1273701,39.0965118 C57.1416386,39.0886827 57.1551144,39.0799086 57.1689866,39.0714046 C57.1836515,39.0623606 57.1985805,39.0538565 57.2129812,39.0440026 C57.2280423,39.0337438 57.2421787,39.022405 57.2565794,39.0112013 C57.268734,39.0018873 57.2811529,38.9932483 57.2930433,38.9833944 C57.3173526,38.9630116 57.340605,38.941414 57.3629325,38.9188715 C57.3643858,38.9173867 57.3662354,38.9159019 57.3676887,38.914417 C57.3690099,38.9130672 57.3700668,38.9114474 57.3715201,38.9100975 C57.3938476,38.8870151 57.4151183,38.8631227 57.435332,38.8380155 C57.4449764,38.8258669 57.4534318,38.8133133 57.4625478,38.8007597 C57.4733813,38.7859113 57.4847433,38.7714679 57.4947841,38.7560797 C57.5044285,38.7412313 57.5128839,38.725978 57.5218678,38.7107247 C57.530059,38.6968212 57.5386465,38.6830528 57.546045,38.6687444 C57.5542362,38.6530861 57.5612383,38.6368879 57.5686368,38.6209597 C57.5753747,38.6062463 57.582641,38.5916679 57.5888505,38.5765496 C57.595192,38.5608914 57.6002124,38.5448281 57.6058934,38.5288999 C57.6115744,38.5127017 57.6175196,38.4967735 57.6226721,38.4801703 C57.6274283,38.4642421 57.6308633,38.4480439 57.6348268,38.4319807 C57.6389224,38.4151076 57.6435464,38.3985044 57.6469814,38.3813613 C57.6506807,38.3625984 57.6527945,38.3435655 57.6554368,38.3245327 C57.6574186,38.3098193 57.660193,38.2953759 57.6616463,38.2805275 C57.6649492,38.2462414 57.6666667,38.2118202 57.6666667,38.177264 L57.6666667,1.0420841 C57.665874,1.00766293 57.6640244,0.973106774 57.6608536,0.938685602 Z M3.98539163,2.08322331 L54.1852843,2.08322331 L51.7012438,4.62121104 L6.46956424,4.62121104 L3.98539163,2.08322331 Z M3.98539163,37.1358549 L6.46956424,34.5978671 L51.7013759,34.5978671 L54.1855485,37.1358549 L3.98539163,37.1358549 Z M30.666037,26.3420503 L29.4123905,24.6284159 L37.5977545,16.5054243 C37.7302666,16.3739489 37.9378204,16.3738139 38.0629341,16.4969203 L51.1042127,29.6470227 L51.1042127,32.5145088 L8.12431411,32.5145088 L20.3262613,16.3896072 C20.4167606,16.2829691 20.5305123,16.2660959 20.5902286,16.2705504 C20.6520588,16.2719003 20.7685849,16.2918781 20.8548565,16.4098549 L29.032822,27.5891766 C29.3698493,28.0498804 30.0086289,28.1442349 30.4598043,27.8000232 C30.9108475,27.4556765 31.0030643,26.8028891 30.666037,26.3420503 Z M55.6273278,35.6627637 L53.1431552,33.124641 L53.1431552,14.368477 C53.1431552,13.793036 52.6866953,13.3267978 52.1236179,13.3267978 C51.5605405,13.3267978 51.1040806,13.793036 51.1040806,14.368477 L51.1040806,26.7202782 L39.4874062,15.006551 C38.5583682,14.089328 37.1043021,14.0912178 36.1771137,15.0110055 L28.181468,22.945693 L22.4879394,15.1627286 C22.0470691,14.5601557 21.3720897,14.2048752 20.6359407,14.1878671 C19.9019055,14.1696441 19.2098832,14.4950929 18.7429861,15.0767432 C18.7369088,15.0844374 18.7306993,15.0921315 18.7247541,15.0999606 L7.06672747,30.5059322 L7.06672747,6.70443435 L51.1042127,6.70443435 L51.1042127,10.2020304 C51.1042127,10.7774714 51.5606727,11.2437095 52.12375,11.2437095 C52.6868274,11.2437095 53.1432873,10.7774714 53.1432873,10.2020304 L53.1432873,6.09430221 L55.6274599,3.55617949 L55.6274599,35.6627637 L55.6273278,35.6627637 Z"/>
      <path d="M28.3332668,7.54226021 C26.2596865,7.54226021 24.5726496,9.23395345 24.5726496,11.3133903 C24.5726496,13.3928272 26.2596865,15.0845204 28.3332668,15.0845204 C30.4069801,15.0845204 32.0940171,13.3928272 32.0940171,11.3133903 C32.0938841,9.23395345 30.4068471,7.54226021 28.3332668,7.54226021 Z M28.3332668,13.0260246 C27.3916493,13.0260246 26.6256125,12.2577401 26.6256125,11.3135237 C26.6256125,10.3693073 27.3917824,9.60102274 28.3332668,9.60102274 C29.2750173,9.60102274 30.0410542,10.3693073 30.0410542,11.3135237 C30.0410542,12.2577401 29.2748843,13.0260246 28.3332668,13.0260246 Z"/>
    </g>
  </g>
</svg>
