<svg xmlns="http://www.w3.org/2000/svg" width="512" height="512" viewBox="0 0 512 512">
  <path fill="#845AF7" fill-rule="evenodd" d="M381.237295,129.473382 C348.20064,94.2148735 301.199543,72.1818182 249.048387,72.1818182 C149.058124,72.1818182 68,153.177577 68,253.090909 C68,353.004241 149.058124,434 249.048387,434 C349.03865,434 430.096774,353.004241 430.096774,253.090909 C430.096774,207.631543 413.316602,166.088381 385.607837,134.308499 L388.391903,135.914335 C408.49601,127.12579 426.899259,117.927359 442.877062,109.012326 C479.241113,88.7181378 502.209906,63.165873 511.15023,42.1623884 C513.55163,37.2389462 508.392949,35.0870417 506.110177,38.6079033 C505.252534,39.9320291 504.361227,42.1880063 503.32885,44.8010332 C492.721175,71.647008 446.218931,103.907651 381.237307,129.473395 Z M327.142428,159.226313 C348.706932,152.226219 369.314403,144.254246 388.392544,135.914015 L378.844657,130.409366 C361.318287,137.212523 342.496637,143.533742 322.67948,149.121649 C277.982669,161.725661 246.633023,173.750068 207.328941,191.600948 C169.541364,208.761746 148.032967,223.327129 139.124705,244.284181 C133.060289,258.551757 130.594767,278.948417 137.484764,292.38341 C172.77636,361.205927 311.050806,304.713631 316.919647,302.014143 C317.18736,301.890857 317.458279,301.690717 317.732404,301.445746 C322.993681,298.703028 326.589369,293.21279 326.589369,286.875559 C326.589369,277.798813 319.22326,270.440068 310.135453,270.440068 C306.651981,270.440068 303.426603,271.528829 300.767109,273.373319 C300.483366,273.520622 300.190004,273.679133 299.872596,273.86166 C295.180409,276.59317 286.878107,280.99785 275.523559,285.330479 L313.035408,196.658884 C314.761915,192.779372 313.011362,188.233794 309.127122,186.510989 C308.109172,186.059474 307.049543,185.844924 306.004341,185.844924 C303.054691,185.844924 300.239699,187.548515 298.965258,190.414519 L239.829592,295.252616 C185.435808,305.659892 172.131926,294.705033 164.222376,283.012058 C158.834456,275.046489 158.117884,262.115848 162.683428,252.23534 C176.54037,222.249576 232.481117,189.954997 327.142428,159.226313 M360.940764,247.380426 C348.941782,247.178685 340.298026,250.063902 334.966213,255.004957 C334.780257,255.15226 334.586286,255.285153 334.403536,255.443664 C327.611326,261.311766 326.867501,271.566936 332.742755,278.35248 C334.400329,280.267419 336.415389,281.682809 338.597168,282.622666 C338.595565,282.62907 338.595565,282.633874 338.593962,282.640278 C338.621214,282.646683 338.64526,282.648284 338.672512,282.654688 C340.280392,283.338366 341.974837,283.764264 343.698138,283.905162 C343.699741,283.908365 343.701344,283.909966 343.70455,283.913168 C343.728596,283.914769 343.751039,283.913168 343.775085,283.914769 C344.368222,283.961202 344.961358,283.974011 345.554494,283.954797 C381.804726,284.68811 390.72902,249.138455 391.561013,236.281466 C390.951846,238.721572 379.536381,247.683038 360.940764,247.380426"/>
</svg>
