<?xml version="1.0" encoding="utf-8"?>
<!-- Generator: Adobe Illustrator 21.0.0, SVG Export Plug-In . SVG Version: 6.00 Build 0)  -->
<svg version="1.1" id="Layer_1" xmlns="http://www.w3.org/2000/svg" xmlns:xlink="http://www.w3.org/1999/xlink" x="0px" y="0px"
	 viewBox="0 0 94 25" style="enable-background:new 0 0 94 25;" xml:space="preserve">
<style type="text/css">
	.st0{enable-background:new    ;}
	.st1{fill:#211842;}
	.st2{fill:none;stroke:#845AF7;stroke-linecap:square;}
</style>
<g class="st0">
	<path class="st1" d="M0.5,18V1.7c0-0.3,0.1-0.5,0.4-0.7c0.3-0.2,0.6-0.3,1-0.3h4.4c1.8,0,3.2,0.5,4.3,1.4c1.1,0.9,1.6,2.4,1.6,4.4
		v6.8c0,2-0.5,3.4-1.6,4.3C9.6,18.5,8.1,19,6.4,19H1.9c-0.4,0-0.8-0.1-1-0.3S0.5,18.3,0.5,18z M3.8,16.2h2.6c1.8,0,2.6-1,2.6-2.9
		V6.5c0-1.9-0.9-2.9-2.6-2.9H3.8V16.2z"/>
	<path class="st1" d="M14,17.1c0-0.3,0.1-0.6,0.3-0.9c0.2-0.3,0.5-0.5,0.8-0.5c0.2,0,0.4,0.1,0.7,0.2c0.3,0.2,0.6,0.3,1.1,0.5
		c0.5,0.2,1,0.3,1.6,0.3c1.2,0,1.8-0.3,1.8-1c0-0.4-0.2-0.7-0.6-0.9c-0.4-0.2-0.9-0.4-1.5-0.6c-0.6-0.1-1.2-0.3-1.7-0.5
		s-1.1-0.5-1.5-1c-0.4-0.5-0.6-1.1-0.6-1.8c0-1,0.4-1.9,1.1-2.7C16.2,7.3,17.3,7,18.9,7c1,0,2,0.2,2.8,0.5c0.8,0.3,1.2,0.7,1.2,1.1
		c0,0.3-0.1,0.6-0.3,1s-0.5,0.6-0.8,0.6c-0.1,0-0.5-0.1-1.1-0.3c-0.6-0.2-1.1-0.3-1.7-0.3c-0.6,0-1,0.1-1.3,0.3
		c-0.3,0.2-0.4,0.5-0.4,0.8c0,0.3,0.1,0.5,0.4,0.7c0.3,0.2,0.7,0.3,1.1,0.4c0.4,0.1,0.9,0.2,1.4,0.4c0.5,0.2,1,0.4,1.4,0.6
		c0.4,0.2,0.8,0.6,1.1,1.1c0.3,0.5,0.4,1.1,0.4,1.7c0,1.2-0.4,2.1-1.2,2.7c-0.8,0.7-1.9,1-3.4,1c-1.2,0-2.3-0.2-3.2-0.6
		C14.4,18.1,14,17.6,14,17.1z"/>
	<path class="st1" d="M24.9,3c0-0.4,0.2-0.7,0.5-1c0.4-0.3,0.8-0.4,1.3-0.4c0.5,0,0.9,0.1,1.2,0.4c0.3,0.3,0.5,0.6,0.5,1
		c0,0.4-0.2,0.7-0.5,1c-0.3,0.3-0.7,0.4-1.2,0.4c-0.5,0-1-0.1-1.3-0.4C25.1,3.8,24.9,3.4,24.9,3z M25.2,18V8.1
		c0-0.3,0.1-0.5,0.4-0.7c0.3-0.2,0.7-0.3,1.1-0.3c0.4,0,0.8,0.1,1.1,0.3s0.4,0.4,0.4,0.7V18c0,0.2-0.2,0.5-0.5,0.7
		c-0.3,0.2-0.7,0.3-1.1,0.3c-0.4,0-0.8-0.1-1.1-0.3C25.4,18.5,25.2,18.2,25.2,18z"/>
	<path class="st1" d="M29.9,21c0-1.2,0.6-2,1.8-2.7c-0.7-0.3-1.1-0.9-1.1-1.6s0.4-1.4,1.3-2c-1-0.8-1.5-1.9-1.5-3.2v-0.5
		c0-1.2,0.5-2.2,1.4-3S33.9,7,35.3,7c1.1,0,2,0.2,2.9,0.7c0.5-1.1,1-1.7,1.5-1.7c0.4,0,0.7,0.1,0.9,0.3S41,6.8,41,7
		c0,0.3-0.1,0.5-0.4,0.7c-0.6,0.4-1,0.8-1.2,1c0.6,0.7,0.9,1.5,0.9,2.4v0.5c0,1.2-0.5,2.2-1.4,3c-0.9,0.8-2.1,1.2-3.6,1.2
		c-0.6,0-1.1-0.1-1.6-0.2c-0.2,0.2-0.3,0.3-0.3,0.5c0,0.3,0.3,0.5,0.8,0.6c0.5,0.1,1.1,0.2,1.9,0.3c0.7,0.1,1.5,0.2,2.2,0.4
		c0.7,0.2,1.4,0.5,1.9,1.1c0.5,0.5,0.8,1.2,0.8,2.1c0,1.3-0.5,2.3-1.6,2.9c-1,0.7-2.3,1-3.9,1c-1.5,0-2.9-0.3-3.9-1
		C30.5,22.9,29.9,22.1,29.9,21z M33,20.7c0,0.5,0.2,1,0.7,1.3c0.5,0.3,1,0.5,1.7,0.5c0.7,0,1.2-0.2,1.7-0.5c0.5-0.3,0.7-0.7,0.7-1.3
		c0-0.2,0-0.4-0.1-0.6c-0.1-0.2-0.2-0.3-0.4-0.4c-0.2-0.1-0.4-0.2-0.6-0.3s-0.4-0.1-0.8-0.2s-0.6-0.1-0.8-0.1c-0.2,0-0.4,0-0.8-0.1
		C33.4,19.4,33,19.9,33,20.7z M33.6,11.6c0,0.7,0.2,1.2,0.5,1.6c0.3,0.4,0.8,0.6,1.3,0.6c0.6,0,1-0.2,1.3-0.6
		c0.3-0.4,0.5-0.9,0.5-1.6v-0.5c0-0.6-0.2-1.1-0.5-1.5c-0.3-0.4-0.8-0.6-1.3-0.6c-0.5,0-1,0.2-1.3,0.6c-0.3,0.4-0.5,0.9-0.5,1.6
		V11.6z"/>
	<path class="st1" d="M42.6,18V8.1c0-0.3,0.1-0.5,0.4-0.7c0.3-0.2,0.7-0.3,1.2-0.3c0.4,0,0.7,0.1,1,0.3c0.3,0.2,0.4,0.4,0.4,0.7v0.8
		c0.3-0.5,0.7-1,1.3-1.4C47.5,7.2,48.2,7,48.9,7c1.1,0,2.2,0.5,3,1.5s1.3,2.2,1.3,3.6V18c0,0.3-0.2,0.6-0.5,0.8
		c-0.3,0.2-0.7,0.3-1.1,0.3c-0.4,0-0.8-0.1-1.1-0.3C50.2,18.5,50,18.3,50,18v-5.9c0-0.6-0.2-1.1-0.7-1.6s-0.9-0.7-1.5-0.7
		c-0.5,0-1,0.2-1.4,0.6c-0.4,0.4-0.6,1-0.6,1.6V18c0,0.2-0.2,0.5-0.5,0.7C45,18.9,44.6,19,44.2,19c-0.5,0-0.8-0.1-1.1-0.3
		C42.7,18.5,42.6,18.2,42.6,18z"/>
	<path class="st1" d="M54.9,17.1c0-0.3,0.1-0.6,0.3-0.9c0.2-0.3,0.5-0.5,0.8-0.5c0.2,0,0.4,0.1,0.7,0.2c0.3,0.2,0.6,0.3,1.1,0.5
		c0.5,0.2,1,0.3,1.6,0.3c1.2,0,1.8-0.3,1.8-1c0-0.4-0.2-0.7-0.6-0.9c-0.4-0.2-0.9-0.4-1.5-0.6c-0.6-0.1-1.2-0.3-1.7-0.5
		c-0.6-0.2-1.1-0.5-1.5-1s-0.6-1.1-0.6-1.8c0-1,0.4-1.9,1.1-2.7S58.2,7,59.8,7c1,0,2,0.2,2.8,0.5s1.2,0.7,1.2,1.1
		c0,0.3-0.1,0.6-0.3,1c-0.2,0.4-0.5,0.6-0.8,0.6c-0.1,0-0.5-0.1-1.1-0.3c-0.6-0.2-1.1-0.3-1.7-0.3c-0.6,0-1,0.1-1.3,0.3
		c-0.3,0.2-0.5,0.5-0.5,0.8c0,0.3,0.1,0.5,0.5,0.7c0.3,0.2,0.7,0.3,1.1,0.4c0.4,0.1,0.9,0.2,1.4,0.4c0.5,0.2,1,0.4,1.4,0.6
		c0.4,0.2,0.8,0.6,1.1,1.1c0.3,0.5,0.4,1.1,0.4,1.7c0,1.2-0.4,2.1-1.2,2.7s-1.9,1-3.4,1c-1.2,0-2.3-0.2-3.2-0.6
		C55.3,18.1,54.9,17.6,54.9,17.1z"/>
</g>
<g>
</g>
<g class="st0">
	<path class="st1" d="M66,18V1.2c0-0.3,0.1-0.5,0.4-0.7c0.3-0.2,0.7-0.3,1.1-0.3s0.9,0.1,1.2,0.3c0.3,0.2,0.5,0.4,0.5,0.7v10.5
		L74,7.2C74.2,7.1,74.4,7,74.6,7c0.4,0,0.7,0.2,1.1,0.5c0.3,0.3,0.5,0.7,0.5,1c0,0.2-0.1,0.4-0.3,0.6l-3,2.7l3.7,5.2
		c0.1,0.2,0.2,0.3,0.2,0.5c0,0.4-0.2,0.7-0.6,1.1c-0.4,0.4-0.8,0.5-1.2,0.5c-0.3,0-0.6-0.1-0.8-0.4l-3.4-5l-1.5,1.4V18
		c0,0.2-0.2,0.5-0.5,0.7C68.4,18.9,68,19,67.6,19c-0.4,0-0.8-0.1-1.1-0.3C66.2,18.5,66,18.2,66,18z"/>
</g>
<g>
</g>
<g class="st0">
	<path class="st1" d="M77,14.1v-2c0-1.4,0.5-2.6,1.6-3.6C79.7,7.5,81,7,82.5,7c1.5,0,2.7,0.5,3.8,1.5c1.1,1,1.6,2.2,1.6,3.6v2
		c0,1.4-0.5,2.5-1.6,3.6c-1.1,1-2.3,1.5-3.8,1.5s-2.7-0.5-3.8-1.5C77.6,16.6,77,15.5,77,14.1z M80.3,14.1c0,0.6,0.2,1.1,0.7,1.6
		c0.4,0.5,1,0.7,1.5,0.7c0.6,0,1.1-0.2,1.5-0.7c0.4-0.5,0.7-1,0.7-1.6v-2c0-0.6-0.2-1.1-0.7-1.5c-0.4-0.5-1-0.7-1.5-0.7
		c-0.6,0-1.1,0.2-1.5,0.7c-0.4,0.5-0.7,1-0.7,1.5V14.1z"/>
	<path class="st1" d="M90.2,18V1.2c0-0.3,0.1-0.5,0.4-0.7c0.3-0.2,0.7-0.3,1.2-0.3c0.5,0,0.8,0.1,1.2,0.3c0.3,0.2,0.5,0.4,0.5,0.7
		V18c0,0.2-0.2,0.5-0.5,0.7c-0.3,0.2-0.7,0.3-1.1,0.3c-0.5,0-0.8-0.1-1.1-0.3C90.3,18.5,90.2,18.2,90.2,18z"/>
</g>
<path class="st2" d="M1,24h26 M43,24h50"/>
</svg>
