<svg xmlns="http://www.w3.org/2000/svg" width="100" height="84" viewBox="0 0 100 84">
  <g fill="none">
    <polygon fill="#A7DCFC" points="92.698 81.746 98.413 81.746 98.413 18.922 88.889 7.143"/>
    <polygon fill="#EAF7FF" points="1.587 18.922 1.587 81.746 92.857 81.746 92.857 7.143"/>
    <polygon fill="#F85B3F" points="92.698 1.587 88.889 10.317 92.698 19.048 98.413 19.048 98.413 1.587"/>
    <polygon fill="#FF7F67" points="80.952 1.587 76.984 10.317 80.952 19.048 92.857 19.048 92.857 1.587"/>
    <rect width="79.365" height="17.46" x="1.587" y="1.587" fill="#B6B8B5"/>
    <rect width="67.46" height="5.556" x="7.143" y="7.143" fill="#FFFFFF"/>
    <polygon fill="#F85B3F" points="86.508 74.603 80.726 74.603 73.016 64.021 80.726 50.794 86.508 50.794"/>
    <rect width="67.46" height="23.81" x="13.492" y="50.794" fill="#FF7F67"/>
    <path fill="#000000" d="M98.5351562,0 L1.46484375,0 C0.655859375,0 0,0.658235294 0,1.47058824 L0,81.8627451 C0,82.675098 0.655859375,83.3333333 1.46484375,83.3333333 L98.5351562,83.3333333 C99.3443359,83.3333333 100,82.675098 100,81.8627451 L100,1.47058824 C100,0.658235294 99.3443359,0 98.5351562,0 Z M97.0703125,17.6470588 L82.421875,17.6470588 L82.421875,2.94117647 L97.0703125,2.94117647 L97.0703125,17.6470588 Z M79.4921875,2.94117647 L79.4921875,17.6470588 L2.9296875,17.6470588 L2.9296875,2.94117647 L79.4921875,2.94117647 Z M2.9296875,80.3921569 L2.9296875,20.5882353 L97.0703125,20.5882353 L97.0703125,80.3921569 L2.9296875,80.3921569 Z"/>
    <path fill="#000000" d="M7.01898623,15.0793651 L12.8727089,15.0793651 C13.6809129,15.0793651 14.3361396,14.4280952 14.3361396,13.6243386 C14.3361396,12.820582 13.6809129,12.1693122 12.8727089,12.1693122 L8.48241691,12.1693122 L8.48241691,9.25925926 L73.2636148,9.25925926 L73.2636148,12.1693122 L18.7264316,12.1693122 C17.9182277,12.1693122 17.263001,12.820582 17.263001,13.6243386 C17.263001,14.4280952 17.9182277,15.0793651 18.7264316,15.0793651 L74.7270455,15.0793651 C75.5354446,15.0793651 76.1904762,14.4280952 76.1904762,13.6243386 L76.1904762,7.8042328 C76.1904762,7.00047619 75.5354446,6.34920635 74.7270455,6.34920635 L7.01898623,6.34920635 C6.21078225,6.34920635 5.55555556,7.00047619 5.55555556,7.8042328 L5.55555556,13.6243386 C5.55555556,14.4280952 6.21078225,15.0793651 7.01898623,15.0793651 Z"/>
    <circle cx="56.349" cy="62.698" r="1.587" fill="#000000"/>
    <circle cx="50" cy="62.698" r="1.587" fill="#000000"/>
    <circle cx="44.444" cy="62.698" r="1.587" fill="#000000"/>
    <path fill="#000000" d="M86.6375121 49.2063492L13.3624879 49.2063492C12.5574344 49.2063492 11.9047619 49.857619 11.9047619 50.6613757L11.9047619 73.9417989C11.9047619 74.7455556 12.5574344 75.3968254 13.3624879 75.3968254L68.3187561 75.3968254C69.1240039 75.3968254 69.776482 74.7455556 69.776482 73.9417989 69.776482 73.1380423 69.1240039 72.4867725 68.3187561 72.4867725L14.8202138 72.4867725 14.8202138 52.1164021 85.1797862 52.1164021 85.1797862 72.4867725 74.1496599 72.4867725C73.3444121 72.4867725 72.6919339 73.1380423 72.6919339 73.9417989 72.6919339 74.7455556 73.3444121 75.3968254 74.1496599 75.3968254L86.6375121 75.3968254C87.44276 75.3968254 88.0952381 74.7455556 88.0952381 73.9417989L88.0952381 50.6613757C88.0952381 49.857619 87.44276 49.2063492 86.6375121 49.2063492zM50 46.031746C50.8768254 46.031746 51.5873016 45.3804762 51.5873016 44.5767196L51.5873016 38.7566138C51.5873016 37.9528571 50.8768254 37.3015873 50 37.3015873 49.1233862 37.3015873 48.4126984 37.9528571 48.4126984 38.7566138L48.4126984 44.5767196C48.4126984 45.3804762 49.1233862 46.031746 50 46.031746zM43.0045482 45.8788306C43.2554367 46.4692084 43.8413325 46.8253968 44.4586942 46.8253968 44.6594469 46.8253968 44.8633462 46.7875914 45.0601132 46.7083022 45.8629142 46.3844016 46.2440716 45.487902 45.9115815 44.7058405L43.5033883 39.0417698C43.1708982 38.2597083 42.2502048 37.8883977 41.4478233 38.2122983 40.6450223 38.5361989 40.2638649 39.4326984 40.596355 40.2147599L43.0045482 45.8788306zM55.7335898 46.7083045C55.9303495 46.7880008 56.1342413 46.8253968 56.3349866 46.8253968 56.9523257 46.8253968 57.5379901 46.469011 57.7890791 45.8788492L60.1971837 40.2148896C60.5298713 39.4328435 60.148728 38.5363615 59.3457467 38.2124673 58.5433948 37.8881644 57.6227353 38.2598764 57.2902574 39.0419226L54.8821528 44.7058821C54.5494652 45.4879283 54.9308183 46.3844103 55.7335898 46.7083045z"/>
  </g>
</svg>
